<svg id="b7110f11-cbb7-4277-8ca6-0659a548f0a5" fill="#fff" data-name="Ebene 1" xmlns="http://www.w3.org/2000/svg" viewBox="0 0 145.88 123.36"><path d="M138.56,109.32c0,4.16-3.85,7.56-8.55,7.56H15.84c-4.7,0-8.54-3.4-8.54-7.56V82.39c0-4.17,3.84-7.57,8.54-7.57H130c4.7,0,8.55,3.4,8.55,7.57v26.93ZM130,68.39H15.84C7.12,68.39,0,74.66,0,82.41v26.94c0,7.72,7.09,14,15.84,14H130c8.72,0,15.84-6.27,15.84-14v-27c0-7.73-7.15-14-15.87-14"/><path d="M99.52,37a3.78,3.78,0,0,0,3-1.37,3,3,0,0,0-.86-4.51,53,53,0,0,0-28.26-7.93A52.93,52.93,0,0,0,45.12,31.1a3,3,0,0,0-.87,4.51,4,4,0,0,0,5.09.76,46.31,46.31,0,0,1,48.12,0,3.55,3.55,0,0,0,2.06.61"/><path d="M73.37,46.2A23.12,23.12,0,0,0,61,49.68a3,3,0,0,0-.87,4.5,4,4,0,0,0,5.1.77A15.56,15.56,0,0,1,81.5,55a4.12,4.12,0,0,0,2.12.6,3.78,3.78,0,0,0,3-1.37,3,3,0,0,0-.86-4.5A22.92,22.92,0,0,0,73.37,46.2"/><path d="M118,19a3.78,3.78,0,0,0,3-1.37,3,3,0,0,0-.86-4.5A87.9,87.9,0,0,0,73.37,0,87.74,87.74,0,0,0,26.59,13.13a3,3,0,0,0-.86,4.5,4,4,0,0,0,5.09.76A79.93,79.93,0,0,1,73.37,6.46a79.94,79.94,0,0,1,42.56,11.93A3.73,3.73,0,0,0,118,19"/><path d="M113.69,92.64H71.91a3.26,3.26,0,1,0,0,6.48h41.78a3.27,3.27,0,1,0,0-6.48"/><path d="M37.79,92a3.9,3.9,0,1,1,0,7.75,3.9,3.9,0,1,1,0-7.75"/></svg>