<svg height="490pt" fill="#fff" viewBox="-38 0 490 490.66667" width="490pt" xmlns="http://www.w3.org/2000/svg"><path d="m213.535156 117.332031h-10.667968v-10.664062c0-69.734375 36.933593-106.667969 106.667968-106.667969h10.664063v10.667969c0 69.730469-36.933594 106.664062-106.664063 106.664062zm84.929688-95.597656c-46.398438 3.199219-70.664063 27.464844-74 74 47.203125-3.199219 70.933594-26.933594 74-74zm0 0"/><path d="m298.867188 490.667969c-17.183594-.011719-34.105469-4.175781-49.332032-12.132813-22.449218-12.019531-49.421875-12.019531-71.867187 0-15.230469 7.957032-32.152344 12.121094-49.335938 12.132813-71.730469 0-128-98.402344-128-224 0-76.402344 57.46875-138.667969 128-138.667969 13.207031 0 26.324219 2.207031 38.800781 6.535156l39.601563 13.730469c4.535156 1.566406 9.464844 1.566406 14 0l39.464844-13.730469c12.4375-4.308594 25.503906-6.515625 38.667969-6.535156 38.53125 0 74.53125 18.535156 99.066406 50.800781l9.332031 12.398438-14.933594 4.265625c-38.34375 11.050781-63.882812 47.230468-61.449219 87.0625 2.429688 39.832031 32.179688 72.636718 71.582032 78.9375l12.136718 2-3.734374 11.734375c-22.132813 71.199219-65.199219 115.46875-112 115.46875zm-85.332032-42.667969c15.996094.125 31.730469 4.105469 45.863282 11.601562 12.164062 6.421876 25.714843 9.761719 39.46875 9.730469 34.933593 0 68.132812-34 88.132812-89.464843-45.929688-12.886719-77.621094-54.832032-77.464844-102.535157.183594-41.476562 24.277344-79.125 61.863282-96.664062-19.597657-20-45.332032-31.335938-72.53125-31.335938-10.800782.003907-21.527344 1.804688-31.734376 5.335938l-39.597656 13.730469c-9.03125 3.101562-18.839844 3.101562-27.867187 0l-39.734375-13.730469c-10.207032-3.53125-20.933594-5.335938-31.734375-5.335938-58.800781 0-106.664063 52.667969-106.664063 117.335938 0 109.867187 48.796875 202.664062 106.664063 202.664062 13.753906.035157 27.308593-3.304687 39.46875-9.730469 14.132812-7.496093 29.867187-11.476562 45.867187-11.601562zm0 0"/></svg>