<svg id="bf665da3-e5f3-4253-88c5-0606617bcc87" fill="#fff" data-name="Ebene 1" xmlns="http://www.w3.org/2000/svg" viewBox="0 0 115.85 121.89"><path d="M109,72.08A11.2,11.2,0,0,1,97.84,83.26H94.71v-8h4.5a3.41,3.41,0,1,0,0-6.82H15.84a3.41,3.41,0,1,0,0,6.82h5v8H18A11.21,11.21,0,0,1,6.82,72.08V43A11.21,11.21,0,0,1,18,31.83H97.84A11.2,11.2,0,0,1,109,43ZM87.87,113a2.2,2.2,0,0,1-2.18,2.17H29.84A2.2,2.2,0,0,1,27.66,113V75.28H87.87ZM27.66,18A11.22,11.22,0,0,1,38.86,6.82H76.65A11.22,11.22,0,0,1,87.84,18v7H27.66Zm70.18,7H94.71V18a18,18,0,0,0-18-18H38.88a18,18,0,0,0-18,18v7H18A18,18,0,0,0,0,43V72.05a18,18,0,0,0,18,18h2.83V112.9a9,9,0,0,0,9,9H85.69a9,9,0,0,0,9-9V90.06h3.15a18,18,0,0,0,18-18V43a18,18,0,0,0-18-18"/><path d="M35.92,92.06H79.35a3.41,3.41,0,1,0,0-6.82H35.92a3.41,3.41,0,0,0,0,6.82"/><path d="M79.63,99.18H36.18a3.41,3.41,0,0,0,0,6.82H79.61a3.41,3.41,0,0,0,0-6.82"/><path d="M97.77,38.37H90.84a3.41,3.41,0,1,0,0,6.82h6.93a3.41,3.41,0,0,0,0-6.82"/></svg>