<svg id="a5868ba2-a2b3-4a5f-aa7d-7b6514bd7554" fill="#fff" data-name="Ebene 1" xmlns="http://www.w3.org/2000/svg" viewBox="0 0 168.76 119.02"><path d="M138.05,95.2H99.26c-2.32,0-4.2,1.27-4.2,2.84l0,.53-21.33,0V98c0-1.57-1.88-2.84-4.2-2.84H30.77c-2.31,0-4.19,1.27-4.19,2.84s1.88,2.84,4.19,2.84H66.09c1.33,2,4.27,3.34,7.64,3.34H95c3.41,0,6.34-1.38,7.64-3.34H138c2.32,0,4.2-1.27,4.2-2.84s-1.84-2.84-4.16-2.84"/><path d="M160.37,103.55a7.64,7.64,0,0,1-7.81,7.43H16.3a7.67,7.67,0,0,1-7.84-7.43V100h8a4.13,4.13,0,0,0,4.24-4V10.54a2.56,2.56,0,0,1,2.63-2.49h121.8a3.14,3.14,0,0,1,3,2.72V95.9a4.17,4.17,0,0,0,4.25,4h8Zm4.21-11.66h-8V10.54a1.36,1.36,0,0,0,0-.4A11.38,11.38,0,0,0,145.11,0H23.31A10.83,10.83,0,0,0,12.23,10.54V91.89h-8a4.15,4.15,0,0,0-4.24,4v7.62C0,112.09,7.29,119,16.26,119H152.5c9,0,16.26-6.93,16.26-15.47V95.93a4,4,0,0,0-4.18-4"/></svg>