<svg id="b94e9518-838a-4ac6-8fd2-ce14fcc7a014" fill="#fff" data-name="Ebene 1" xmlns="http://www.w3.org/2000/svg" viewBox="0 0 73.86 120.25"><defs><style>.a8908965-fdb3-4021-be6d-95b1e7c2d4d4{stroke:#000;stroke-linecap:round;stroke-miterlimit:10;stroke-width:0.58px;}</style></defs><path d="M63.67,0H10.19A10.21,10.21,0,0,0,0,10.13v100a10.16,10.16,0,0,0,10.19,10.1H63.67a10.16,10.16,0,0,0,10.19-10.1V10.1A10.16,10.16,0,0,0,63.67,0Zm2.39,110.15a2.38,2.38,0,0,1-2.39,2.36H10.19a2.38,2.38,0,0,1-2.39-2.36v-5.29l0-94.73a2.38,2.38,0,0,1,2.38-2.36H63.67a2.38,2.38,0,0,1,2.39,2.36Z"/><path d="M45.27,13.59H28a2.12,2.12,0,0,0,0,4.24H45.27a2.12,2.12,0,0,0,0-4.24Z"/><circle class="a8908965-fdb3-4021-be6d-95b1e7c2d4d4" cx="36.93" cy="102.62" r="4.06"/></svg>