<?xml version="1.0" encoding="utf-8"?>
<!-- Generator: Adobe Illustrator 16.0.0, SVG Export Plug-In . SVG Version: 6.00 Build 0)  -->
<!DOCTYPE svg PUBLIC "-//W3C//DTD SVG 1.1//EN" "http://www.w3.org/Graphics/SVG/1.1/DTD/svg11.dtd">
<svg version="1.1" id="Ebene_1" xmlns="http://www.w3.org/2000/svg" xmlns:xlink="http://www.w3.org/1999/xlink" x="0px" y="0px"
	 width="461px" height="368px" viewBox="0 0 461 368" enable-background="new 0 0 461 368" xml:space="preserve">
<g>
	<defs>
		<rect id="SVGID_1_" x="-219" y="-74.276" width="841.89" height="595.276"/>
	</defs>
	<clipPath id="SVGID_2_">
		<use xlink:href="#SVGID_1_"  overflow="visible"/>
	</clipPath>
	<path clip-path="url(#SVGID_2_)" fill="#95A3AB" d="M12.554,359.398h2.894c1.056,0,1.836-0.826,1.836-1.882v-0.505
		c0-1.034-0.758-1.883-1.79-1.883h-2.94V359.398z M12.554,352.487h2.963c1.033,0,1.767-0.849,1.767-1.883v-0.114
		c0-1.056-0.78-1.883-1.836-1.883h-2.894V352.487z M20.178,357.792c0,2.409-1.999,4.248-4.684,4.248H9.662v-16.073h5.832
		c2.685,0,4.684,1.838,4.684,4.248v0.046c0,1.653-0.667,2.731-1.93,3.536c1.332,0.827,1.93,2.065,1.93,3.536V357.792z"/>
	<path clip-path="url(#SVGID_2_)" fill="#95A3AB" d="M32.525,350.604c0-1.056-0.78-1.881-1.837-1.881h-3.03v4.614h3.03
		c1.057,0,1.837-0.826,1.837-1.883V350.604z M35.418,351.455c0,2.021-1.194,3.649-2.938,4.316l3.306,6.268h-3.192l-3.054-5.945
		h-1.882v5.945h-2.893v-16.072h5.97c2.64,0,4.683,1.999,4.683,4.638V351.455z"/>
</g>
<rect x="40.605" y="345.967" fill="#95A3AB" width="2.893" height="16.073"/>
<polygon fill="#95A3AB" points="58.396,362.039 52.266,351.73 52.128,351.041 52.128,362.039 49.235,362.039 49.235,345.967 
	51.783,345.967 57.913,356.276 58.051,356.965 58.051,345.967 60.944,345.967 60.944,362.039 "/>
<g>
	<defs>
		<rect id="SVGID_3_" x="-219" y="-74.276" width="841.89" height="595.276"/>
	</defs>
	<clipPath id="SVGID_4_">
		<use xlink:href="#SVGID_3_"  overflow="visible"/>
	</clipPath>
	<path clip-path="url(#SVGID_4_)" fill="#95A3AB" d="M71.708,353.13h5.258v8.909h-1.125l-0.827-1.263
		c-0.757,0.94-1.859,1.492-3.192,1.492h-0.688c-2.64,0-4.684-1.997-4.684-4.639v-7.254c0-2.641,2.044-4.638,4.684-4.638h1.149
		c2.64,0,4.683,1.997,4.683,4.638v0.827l-2.893,0.274v-1.102c0-1.056-0.781-1.884-1.836-1.884H71.18
		c-1.056,0-1.837,0.828-1.837,1.884v7.254c0,1.057,0.781,1.885,1.837,1.885h1.057c1.055,0,1.836-0.828,1.836-1.885v-1.744h-2.365
		V353.13z"/>
</g>
<polygon fill="#95A3AB" points="87.777,348.723 87.777,362.039 84.884,362.039 84.884,348.723 81.095,348.723 81.095,345.967 
	91.565,345.967 91.565,348.723 "/>
<polygon fill="#95A3AB" points="116.379,348.723 116.379,362.039 113.487,362.039 113.487,348.723 109.699,348.723 109.699,345.967 
	120.167,345.967 120.167,348.723 "/>
<polygon fill="#95A3AB" points="124.527,362.039 124.527,345.967 134.79,345.967 134.79,348.724 127.42,348.724 127.42,352.625 
	133.343,352.625 133.343,355.382 127.42,355.382 127.42,359.285 134.79,359.285 134.79,362.039 "/>
<g>
	<defs>
		<rect id="SVGID_5_" x="-219" y="-74.276" width="841.89" height="595.276"/>
	</defs>
	<clipPath id="SVGID_6_">
		<use xlink:href="#SVGID_5_"  overflow="visible"/>
	</clipPath>
	<path clip-path="url(#SVGID_6_)" fill="#95A3AB" d="M147,356.528l2.893,0.276v0.826c0,2.641-2.043,4.637-4.684,4.637h-1.147
		c-2.641,0-4.685-1.996-4.685-4.637v-7.255c0-2.642,2.044-4.638,4.685-4.638h1.147c2.641,0,4.684,1.996,4.684,4.638v0.827
		L147,351.478v-1.102c0-1.057-0.781-1.883-1.837-1.883h-1.056c-1.056,0-1.836,0.826-1.836,1.883v7.255
		c0,1.056,0.78,1.883,1.836,1.883h1.056c1.056,0,1.837-0.827,1.837-1.883V356.528z"/>
</g>
<polygon fill="#95A3AB" points="155.172,362.039 155.172,345.967 158.065,345.967 158.065,352.625 163.001,352.625 163.001,345.967 
	165.894,345.967 165.894,362.039 163.001,362.039 163.001,355.382 158.065,355.382 158.065,362.039 "/>
<polygon fill="#95A3AB" points="180.791,362.039 174.661,351.73 174.523,351.041 174.523,362.039 171.63,362.039 171.63,345.967 
	174.179,345.967 180.309,356.276 180.447,356.965 180.447,345.967 183.339,345.967 183.339,362.039 "/>
<rect x="189.075" y="345.967" fill="#95A3AB" width="2.893" height="16.073"/>
<path fill="#95A3AB" d="M206.086,362.039l-5.143-8.036l5.143-8.036h3.354l-5.259,8.036l5.259,8.036H206.086z M197.706,345.967h2.893
	v16.073h-2.893V345.967z"/>
<polygon fill="#95A3AB" points="228.028,362.039 228.028,359.974 234.573,348.724 228.26,348.724 228.26,345.967 238.224,345.967 
	238.224,348.034 231.68,359.285 238.224,359.285 238.224,362.039 "/>
<g>
	<defs>
		<rect id="SVGID_7_" x="-219" y="-74.276" width="841.89" height="595.276"/>
	</defs>
	<clipPath id="SVGID_8_">
		<use xlink:href="#SVGID_7_"  overflow="visible"/>
	</clipPath>
	<path clip-path="url(#SVGID_8_)" fill="#95A3AB" d="M253.328,345.967v11.664c0,2.641-2.043,4.637-4.684,4.637h-1.148
		c-2.641,0-4.685-1.996-4.685-4.637v-11.664h2.894v11.664c0,1.056,0.78,1.883,1.837,1.883h1.057c1.055,0,1.836-0.827,1.836-1.883
		v-11.664H253.328z"/>
</g>
<polygon fill="#95A3AB" points="265.24,362.039 261.818,350.215 261.728,349.526 261.728,362.039 258.835,362.039 258.835,345.967 
	263.059,345.967 266.595,358.205 266.641,358.802 266.687,358.205 270.223,345.967 274.447,345.967 274.447,362.039 
	271.554,362.039 271.554,349.526 271.462,350.215 268.042,362.039 "/>
<polygon fill="#95A3AB" points="295.104,362.039 295.104,345.967 297.996,345.967 297.996,359.285 303.919,359.285 303.919,362.039 
	"/>
<path fill="#95A3AB" d="M311.241,356.367h3.696l-1.791-7.002l-0.046-0.597l-0.046,0.597L311.241,356.367z M306.672,362.039
	l4.479-16.072h3.879l4.501,16.072h-3.123l-0.827-3.191h-4.958l-0.827,3.191H306.672z"/>
<g>
	<defs>
		<rect id="SVGID_9_" x="-219" y="-74.276" width="841.89" height="595.276"/>
	</defs>
	<clipPath id="SVGID_10_">
		<use xlink:href="#SVGID_9_"  overflow="visible"/>
	</clipPath>
	<path clip-path="url(#SVGID_10_)" fill="#95A3AB" d="M333.945,345.967v11.664c0,2.641-2.043,4.637-4.684,4.637h-1.148
		c-2.64,0-4.684-1.996-4.684-4.637v-11.664h2.893v11.664c0,1.056,0.781,1.883,1.837,1.883h1.057c1.056,0,1.836-0.827,1.836-1.883
		v-11.664H333.945z"/>
</g>
<polygon fill="#95A3AB" points="342.346,348.723 342.346,352.625 348.269,352.625 348.269,355.381 342.346,355.381 342.346,362.039 
	339.452,362.039 339.452,345.967 349.715,345.967 349.715,348.723 "/>
<polygon fill="#95A3AB" points="354.073,362.039 354.073,345.967 364.338,345.967 364.338,348.724 356.967,348.724 356.967,352.625 
	362.89,352.625 362.89,355.382 356.967,355.382 356.967,359.285 364.338,359.285 364.338,362.039 "/>
<polygon fill="#95A3AB" points="378.315,362.039 372.186,351.73 372.047,351.041 372.047,362.039 369.154,362.039 369.154,345.967 
	371.703,345.967 377.833,356.276 377.972,356.965 377.972,345.967 380.863,345.967 380.863,362.039 "/>
<polygon fill="#48535B" points="44.31,325.69 25.806,261.732 25.309,258.007 25.309,325.69 9.661,325.69 9.661,238.758 
	32.512,238.758 51.637,304.951 51.885,308.181 52.134,304.951 71.259,238.758 94.11,238.758 94.11,325.69 78.462,325.69 
	78.462,258.007 77.965,261.732 59.461,325.69 "/>
<g>
	<defs>
		<rect id="SVGID_11_" x="-219" y="-74.276" width="841.89" height="595.276"/>
	</defs>
	<clipPath id="SVGID_12_">
		<use xlink:href="#SVGID_11_"  overflow="visible"/>
	</clipPath>
	<path clip-path="url(#SVGID_12_)" fill="#48535B" d="M135.588,301.599l15.275,1.49v0.993c0,13.164-9.563,22.851-22.726,22.851
		h-3.851c-13.164,0-22.726-9.687-22.726-22.851v-20.118c0-13.164,9.562-22.851,22.726-22.851h3.851
		c13.163,0,22.726,9.687,22.726,22.851v0.993l-15.275,1.49v-2.98c0-4.099-3.354-7.452-7.451-7.452h-3.851
		c-4.098,0-7.45,3.354-7.45,7.452v21.112c0,4.098,3.352,7.451,7.45,7.451h3.851c4.097,0,7.451-3.354,7.451-7.451V301.599z"/>
</g>
<polygon fill="#F37021" points="176.699,253.661 176.699,274.772 208.74,274.772 208.74,289.676 176.699,289.676 176.699,325.69 
	161.051,325.69 161.051,238.758 216.563,238.758 216.563,253.661 "/>
<g>
	<defs>
		<rect id="SVGID_13_" x="-219" y="-74.276" width="841.89" height="595.276"/>
	</defs>
	<clipPath id="SVGID_14_">
		<use xlink:href="#SVGID_13_"  overflow="visible"/>
	</clipPath>
	<path clip-path="url(#SVGID_14_)" fill="#F37021" d="M249.35,283.467c0-4.099-3.354-7.452-7.451-7.452h-3.851
		c-4.099,0-7.451,3.354-7.451,7.452v21.112c0,4.098,3.353,7.451,7.451,7.451h3.851c4.097,0,7.451-3.354,7.451-7.451V283.467z
		 M264.625,304.082c0,13.164-9.563,22.852-22.727,22.852h-3.851c-13.164,0-22.728-9.688-22.728-22.852v-20.119
		c0-13.163,9.563-22.851,22.728-22.851h3.851c13.163,0,22.727,9.688,22.727,22.851V304.082z"/>
</g>
<polygon fill="#F37021" points="293.684,306.938 282.755,325.69 265.865,325.69 285.238,293.525 266.486,262.355 283.376,262.355 
	293.684,280.114 303.992,262.355 320.881,262.355 302.129,293.525 321.502,325.69 304.612,325.69 "/>
<polygon fill="#F37021" points="353.046,306.938 342.117,325.69 325.229,325.69 344.602,293.525 325.85,262.355 342.738,262.355 
	353.046,280.114 363.354,262.355 380.243,262.355 361.491,293.525 380.864,325.69 363.976,325.69 "/>
<g>
	<defs>
		<rect id="SVGID_15_" x="-219" y="-74.276" width="841.89" height="595.276"/>
	</defs>
	<clipPath id="SVGID_16_">
		<use xlink:href="#SVGID_15_"  overflow="visible"/>
	</clipPath>
	<path clip-path="url(#SVGID_16_)" fill="#F37021" d="M156.644,125.807h8.679v-8.679h11.038
		c-8.705-7.004-15.476-16.033-19.269-27.767c-3.517-10.881-3.099-21.825-0.339-32.254c-10.445,14.513-17.974,30.311-17.698,45.513
		c0.232,12.86,6.01,24.063,17.589,34.136V125.807z M385.556,286.236c14.021-8.928,31.384-25.499,25.937-43.895
		c-13.795-46.592-112.809-54.511-149.188-59.795c-36.258-5.266-76.472-14.851-105.961-37.609
		C99.947,101.414,156.433,40.183,195.235,7.93c-19.077,19.466-41.203,50.799-31.949,79.429
		c15.803,48.897,91.891,46.507,133.645,51.169c44.762,4.998,96.363,11.573,135.103,36.24
		C490.934,212.272,421.084,264.146,385.556,286.236"/>
</g>
</svg>
